<svg width="48" height="49" viewBox="0 0 48 49" fill="none" xmlns="http://www.w3.org/2000/svg">
<g clip-path="url(#clip0_2_3637)">
<path d="M0 24.5C0 11.2452 10.7452 0.5 24 0.5C37.2548 0.5 48 11.2452 48 24.5C48 37.7548 37.2548 48.5 24 48.5C10.7452 48.5 0 37.7548 0 24.5Z" fill="#F3F4F6"/>
<path d="M48 42.488V48.502H0V42.51C2.7919 38.7789 6.41581 35.7506 10.5836 33.6661C14.7513 31.5815 19.348 30.4981 24.008 30.502C33.816 30.502 42.528 35.21 48 42.488ZM32.004 18.5C32.004 20.6217 31.1611 22.6565 29.6609 24.1568C28.1606 25.6571 26.1257 26.5 24.004 26.5C21.8823 26.5 19.8474 25.6571 18.3471 24.1568C16.8469 22.6565 16.004 20.6217 16.004 18.5C16.004 16.3782 16.8469 14.3434 18.3471 12.8431C19.8474 11.3428 21.8823 10.5 24.004 10.5C26.1257 10.5 28.1606 11.3428 29.6609 12.8431C31.1611 14.3434 32.004 16.3782 32.004 18.5Z" fill="#D1D5DB"/>
</g>
<defs>
<clipPath id="clip0_2_3637">
<path d="M0 24.5C0 11.2452 10.7452 0.5 24 0.5C37.2548 0.5 48 11.2452 48 24.5C48 37.7548 37.2548 48.5 24 48.5C10.7452 48.5 0 37.7548 0 24.5Z" fill="white"/>
</clipPath>
</defs>
</svg>
